<?xml version="1.0" encoding="UTF-8"?>
<svg width="250px" height="250px" viewBox="0 0 250 250" version="1.1" xmlns="http://www.w3.org/2000/svg" xmlns:xlink="http://www.w3.org/1999/xlink">
    <title>Group</title>
    <defs>
        <polygon id="path-1" points="0 0 250 0 250 250 0 250"></polygon>
    </defs>
    <g id="Front-Page" stroke="none" stroke-width="1" fill="none" fill-rule="evenodd">
        <g id="Hero-Copy" transform="translate(-152.000000, -70.000000)">
            <g id="Group-2" transform="translate(152.000000, 70.000000)">
                <g id="Group">
                    <mask id="mask-2" fill="white">
                        <use xlink:href="#path-1"></use>
                    </mask>
                    <g id="Clip-2"></g>
                    <path d="M249.291498,111.756425 C248.159392,101.104276 245.672106,90.6809055 242.047137,80.9382906 C238.422169,71.1900958 233.665095,62.1226565 227.775915,53.7415525 C222.10981,45.5836471 215.317177,38.1009171 207.838587,31.5277211 C200.371152,24.7313265 191.989109,19.0676644 183.15534,14.3079562 C173.864266,9.54824805 164.127043,5.92127231 154.161168,3.42702899 C143.514914,0.932785668 132.640008,-0.199946757 121.770679,0.0288317129 C111.124425,0.257610183 100.478171,1.84231958 90.2836439,5.01173839 C80.3177687,7.72918022 70.8036203,11.8137129 61.7467757,17.025398 C53.136081,22.2370832 45.2113419,28.3583023 37.9614047,35.3778953 C30.7114675,42.4086483 24.3705609,50.1145768 19.1617598,58.7244592 C13.7243069,67.3399216 9.19588461,76.6305594 6.02264286,86.3731743 C2.85497798,96.5733461 0.813841812,107.225495 0.133463089,117.877644 C-0.318263769,128.529792 0.362114955,139.181941 2.39767425,149.605311 C4.43881042,159.805483 7.83512716,169.776877 12.1404745,179.067514 C13.5012319,181.784956 16.6688968,182.917689 19.3848348,181.561758 C21.8776979,180.429025 23.0098034,177.254026 21.8776979,174.531005 C17.8010024,165.921122 14.6277606,156.859263 12.8208532,147.563045 C11.0083689,138.043629 10.3279902,128.301014 10.779717,118.558399 C11.4600958,108.587006 13.2725801,98.8388109 16.21717,89.548173 C19.1617598,80.7095122 23.0098034,72.0996297 27.9955295,64.3937013 C32.9756787,56.4589943 38.8704353,49.4338213 45.4344169,42.8606253 C52.0039754,36.5162077 59.2539126,30.8469656 67.1786517,26.3160359 C75.3376195,21.5563277 84.1713892,17.7061535 93.2282338,15.2119102 C102.51373,12.4888884 112.256531,10.904179 121.993754,10.6809805 C131.959629,10.452202 141.931081,11.356156 151.668305,13.8503993 C160.953801,15.8926656 169.787571,19.2908629 178.169614,23.8217926 C186.323005,27.9063253 194.024669,33.3412089 200.822879,39.462428 C207.615512,45.5836471 213.733344,52.3800416 218.942145,59.8571916 C224.379598,67.5631201 228.679368,75.949804 232.081262,84.5596864 C235.472002,93.6271258 237.74179,103.146542 238.645244,112.889157 C239.777349,122.637352 239.554274,132.608745 238.193517,142.580138 C236.609684,152.093975 233.88817,161.390193 230.263201,170.228853 C226.415157,178.615537 221.886735,186.773443 216.22063,194.250593 C210.788754,201.504544 204.442271,208.07774 197.420985,213.741402 C190.171048,219.633843 182.246309,224.62233 173.864266,228.472504 C170.696601,230.062793 167.52336,231.418724 164.127043,232.780235 C164.57877,232.09948 165.259148,231.418724 165.710875,230.737969 C174.32157,218.501111 177.717887,205.806696 175.905402,192.894662 C173.864266,178.15798 167.071633,166.149901 155.973652,158.215194 L155.745,157.991995 C155.293273,157.763217 155.064621,157.540018 154.612895,157.31124 C154.161168,157.082461 153.703864,156.859263 153.480789,156.630484 L152.80041,155.949729 C145.098746,150.966822 136.716703,148.243801 127.202555,147.791824 C118.597437,147.339847 110.444046,149.83409 103.645836,152.328333 L103.422761,152.551532 L103.194109,152.551532 C117.465332,125.812351 131.056175,101.785031 131.27925,101.333054 C132.640008,98.8388109 131.736554,95.6693921 129.243691,94.3078812 C126.750828,92.7175918 123.577586,93.6271258 121.993754,96.1213691 C121.993754,96.3445676 106.819078,120.823864 87.7963578,137.591652 L87.5677059,137.82043 C73.5195583,151.870776 48.1559318,165.240367 47.92728,165.469145 C45.2113419,166.830656 44.3023114,170.000075 45.6630688,172.494318 C47.0182494,175.21734 50.1914911,176.121294 52.6843541,174.765363 C53.8164597,174.307806 79.8660418,160.709437 95.0407181,145.526359 L95.26937,145.29758 C88.9284634,156.859263 82.5819799,169.096121 76.9214519,180.429025 C76.6928001,181.109781 76.4697251,181.784956 76.4697251,182.69449 C74.6572408,187.906175 73.7482102,192.665883 73.7482102,198.329546 C73.7482102,201.275766 76.2410732,202.866055 79.1856631,202.866055 C82.130253,202.866055 84.3944642,201.275766 84.3944642,198.329546 C84.1713892,185.863909 90.0605689,174.307806 100.249519,166.378679 C103.194109,164.336413 105.235245,163.20368 107.499456,162.070948 C113.388636,160.028682 119.958195,157.991995 126.527753,158.443972 C134.000765,158.672751 140.570324,160.709437 146.459504,164.559611 C147.362957,165.240367 148.271988,165.921122 148.94679,166.378679 C149.175442,166.601878 149.404093,166.601878 149.85582,166.830656 C158.460938,173.175074 163.669739,182.465712 165.4878,194.250593 C166.842981,204.450765 163.898391,214.645356 156.877106,224.62233 C154.83597,227.56855 152.120031,229.834015 148.495063,232.551457 C148.271988,232.09948 148.043336,231.870701 147.820261,231.418724 L147.820261,231.189946 C143.063187,224.845528 136.716703,220.314599 127.202555,216.235646 C126.97948,216.235646 126.97948,216.235646 126.750828,216.006867 C120.409921,214.193379 114.749394,214.422158 110.220971,216.464424 L109.763668,216.464424 C102.51373,220.543377 102.062003,229.382038 105.45832,236.178432 C108.40291,242.980407 116.561878,249.776801 130.827524,249.776801 L132.188281,249.776801 C132.411356,249.776801 132.86866,250 133.097312,250 L133.549038,249.776801 C138.75784,249.548023 143.737989,248.872848 148.94679,247.963314 L149.175442,247.963314 C159.141317,245.921047 169.112769,242.52285 178.398265,238.220699 C187.683762,233.912968 196.28888,228.472504 203.990544,221.899308 C211.692208,215.783669 218.713493,208.529717 224.602673,200.59501 C230.720505,192.437105 235.929306,183.598444 240.006001,174.307806 C244.082697,164.78839 247.027287,154.588218 248.611119,144.164848 C250.200528,133.283921 250.423603,122.408573 249.291498,111.756425 M115.59796,232.136575 L115.371027,231.912671 C114.695762,230.546851 113.799099,227.1379 115.149629,226.225488 C117.396821,225.318673 120.319277,225.548175 123.690065,226.45499 C131.106905,229.640036 135.828223,233.048988 139.204545,237.594256 C137.178752,238.506668 135.152958,238.960076 132.905766,239.413483 C122.566469,239.86689 117.169887,235.775029 115.59796,232.136575" id="Fill-1" fill="#EAD2CA" mask="url(#mask-2)"></path>
                </g>
            </g>
        </g>
    </g>
</svg>